# xmcd
#
# Track frame offsets: 
#        150
#        15671
#        34648
#        47489
#        62482
#        79058
#        94844
#        115354
#        133166
#        151768
#        169960
#        185080
#        204109
#        218329
#        235827
#        252683
#        268232
#
# Disc length: 3850 seconds
#
# Revision: 2
# Processed by: cddbd v1.5.2PL0 Copyright (c) Steve Scherf et al.
# Submitted via: ExactAudioCopy v1.1
#
DISCID=e60f0811
DTITLE=Various Artist - De Grootste Nederlandse Pophits - CD 1
DYEAR=2009
DGENRE=Top 40
TTITLE0=Earth and Fire - Weekend
TTITLE1=Spargo - You And Me
TTITLE2=The Surfers - Windsurfin'
TTITLE3=Vanessa - Upside Down
TTITLE4=Bolland and Bolland - Space Man
TTITLE5=Greenfield and Cook - Only Lies
TTITLE6=Lucifer - House For Sale
TTITLE7=Maywood - Give Me Back My Love
TTITLE8=BZN - Mon Amour
TTITLE9=Walkers - There's No More Corn On The Brasos
TTITLE10=The Cats - Let's Dance
TTITLE11=Oscar Harris and The Twinkle Stars - Soldiers Prayer
TTITLE12=Teach In - Fly Away
TTITLE13=Renée - High Time He Went
TTITLE14=Nick MacKenzie - One Is One
TTITLE15=Monotones - Mono
TTITLE16=Long Tall Ernie and The Shakers - Do You Remember
EXTD=
EXTT0=
EXTT1=
EXTT2=
EXTT3=
EXTT4=
EXTT5=
EXTT6=
EXTT7=
EXTT8=
EXTT9=
EXTT10=
EXTT11=
EXTT12=
EXTT13=
EXTT14=
EXTT15=
EXTT16=
PLAYORDER=
